<mxfile host="app.diagrams.net" modified="2023-09-22T18:23:38.683Z" agent="Mozilla/5.0 (Windows NT 10.0; Win64; x64) AppleWebKit/537.36 (KHTML, like Gecko) Chrome/116.0.0.0 Safari/537.36" etag="viK32tx8jxVzsqeq2Qgx" version="21.7.5" type="device">
  <diagram name="Страница — 1" id="BBkWbEfTVU3nGmQAc8mG">
    <mxGraphModel dx="1400" dy="775" grid="1" gridSize="10" guides="1" tooltips="1" connect="1" arrows="1" fold="1" page="1" pageScale="1" pageWidth="827" pageHeight="1169" math="0" shadow="0">
      <root>
        <mxCell id="0" />
        <mxCell id="1" parent="0" />
        <mxCell id="S8IxdaovWTGk8MnOaM-I-36" value="" style="rounded=1;whiteSpace=wrap;html=1;fillColor=none;" vertex="1" parent="1">
          <mxGeometry x="40" width="840" height="730" as="geometry" />
        </mxCell>
        <mxCell id="S8IxdaovWTGk8MnOaM-I-24" style="edgeStyle=orthogonalEdgeStyle;rounded=0;orthogonalLoop=1;jettySize=auto;html=1;exitX=0;exitY=0.5;exitDx=0;exitDy=0;entryX=1;entryY=0.5;entryDx=0;entryDy=0;fontSize=13;" edge="1" parent="1" source="S8IxdaovWTGk8MnOaM-I-2" target="S8IxdaovWTGk8MnOaM-I-3">
          <mxGeometry relative="1" as="geometry" />
        </mxCell>
        <mxCell id="S8IxdaovWTGk8MnOaM-I-2" value="Вывести форму входа в ЛК" style="rounded=1;whiteSpace=wrap;html=1;fillColor=#fff2cc;strokeColor=#d6b656;fontSize=13;" vertex="1" parent="1">
          <mxGeometry x="470" y="130" width="190" height="60" as="geometry" />
        </mxCell>
        <mxCell id="S8IxdaovWTGk8MnOaM-I-25" style="edgeStyle=orthogonalEdgeStyle;rounded=0;orthogonalLoop=1;jettySize=auto;html=1;exitX=0.5;exitY=1;exitDx=0;exitDy=0;fontSize=13;" edge="1" parent="1" source="S8IxdaovWTGk8MnOaM-I-3" target="S8IxdaovWTGk8MnOaM-I-4">
          <mxGeometry relative="1" as="geometry" />
        </mxCell>
        <mxCell id="S8IxdaovWTGk8MnOaM-I-3" value="Ввести логин и пароль" style="rounded=1;whiteSpace=wrap;html=1;fillColor=#fff2cc;strokeColor=#d6b656;fontSize=13;" vertex="1" parent="1">
          <mxGeometry x="140" y="130" width="160" height="60" as="geometry" />
        </mxCell>
        <mxCell id="S8IxdaovWTGk8MnOaM-I-26" style="edgeStyle=orthogonalEdgeStyle;rounded=0;orthogonalLoop=1;jettySize=auto;html=1;exitX=0;exitY=0.5;exitDx=0;exitDy=0;fontSize=13;" edge="1" parent="1" source="S8IxdaovWTGk8MnOaM-I-4" target="S8IxdaovWTGk8MnOaM-I-12">
          <mxGeometry relative="1" as="geometry" />
        </mxCell>
        <mxCell id="S8IxdaovWTGk8MnOaM-I-33" style="edgeStyle=orthogonalEdgeStyle;rounded=0;orthogonalLoop=1;jettySize=auto;html=1;exitX=1;exitY=0.5;exitDx=0;exitDy=0;fontSize=13;" edge="1" parent="1" source="S8IxdaovWTGk8MnOaM-I-4" target="S8IxdaovWTGk8MnOaM-I-7">
          <mxGeometry relative="1" as="geometry" />
        </mxCell>
        <mxCell id="S8IxdaovWTGk8MnOaM-I-4" value="Информация верна?" style="rhombus;whiteSpace=wrap;html=1;fillColor=#dae8fc;strokeColor=#6c8ebf;fontSize=13;" vertex="1" parent="1">
          <mxGeometry x="511.88" y="230" width="106.25" height="90" as="geometry" />
        </mxCell>
        <mxCell id="S8IxdaovWTGk8MnOaM-I-5" value="Нет" style="text;html=1;strokeColor=none;fillColor=none;align=center;verticalAlign=middle;whiteSpace=wrap;rounded=0;fontSize=13;" vertex="1" parent="1">
          <mxGeometry x="610" y="240" width="60" height="30" as="geometry" />
        </mxCell>
        <mxCell id="S8IxdaovWTGk8MnOaM-I-6" value="Да" style="text;html=1;strokeColor=none;fillColor=none;align=center;verticalAlign=middle;whiteSpace=wrap;rounded=0;fontSize=13;" vertex="1" parent="1">
          <mxGeometry x="460" y="240" width="60" height="30" as="geometry" />
        </mxCell>
        <mxCell id="S8IxdaovWTGk8MnOaM-I-34" style="edgeStyle=orthogonalEdgeStyle;rounded=0;orthogonalLoop=1;jettySize=auto;html=1;exitX=0.5;exitY=1;exitDx=0;exitDy=0;entryX=0.5;entryY=0;entryDx=0;entryDy=0;fontSize=13;" edge="1" parent="1" source="S8IxdaovWTGk8MnOaM-I-7" target="S8IxdaovWTGk8MnOaM-I-8">
          <mxGeometry relative="1" as="geometry" />
        </mxCell>
        <mxCell id="S8IxdaovWTGk8MnOaM-I-7" value="Вывести сообщение о неверно введённых данных" style="rounded=1;whiteSpace=wrap;html=1;fillColor=#ffe6cc;strokeColor=#d79b00;fontSize=13;" vertex="1" parent="1">
          <mxGeometry x="570" y="350" width="190" height="60" as="geometry" />
        </mxCell>
        <mxCell id="S8IxdaovWTGk8MnOaM-I-31" style="edgeStyle=orthogonalEdgeStyle;rounded=0;orthogonalLoop=1;jettySize=auto;html=1;exitX=0;exitY=0.5;exitDx=0;exitDy=0;entryX=1;entryY=0.5;entryDx=0;entryDy=0;fontSize=13;" edge="1" parent="1" source="S8IxdaovWTGk8MnOaM-I-8" target="S8IxdaovWTGk8MnOaM-I-9">
          <mxGeometry relative="1" as="geometry" />
        </mxCell>
        <mxCell id="S8IxdaovWTGk8MnOaM-I-32" style="edgeStyle=orthogonalEdgeStyle;rounded=0;orthogonalLoop=1;jettySize=auto;html=1;exitX=1;exitY=0.5;exitDx=0;exitDy=0;entryX=1;entryY=0.5;entryDx=0;entryDy=0;fontSize=13;" edge="1" parent="1" source="S8IxdaovWTGk8MnOaM-I-8" target="S8IxdaovWTGk8MnOaM-I-2">
          <mxGeometry relative="1" as="geometry" />
        </mxCell>
        <mxCell id="S8IxdaovWTGk8MnOaM-I-8" value="Предложить ввести &lt;br&gt;данные ещё раз или&lt;br&gt;&amp;nbsp;обратиться в поддержку" style="rhombus;whiteSpace=wrap;html=1;fillColor=#f8cecc;strokeColor=#b85450;fontSize=13;" vertex="1" parent="1">
          <mxGeometry x="525" y="440" width="280" height="110" as="geometry" />
        </mxCell>
        <mxCell id="S8IxdaovWTGk8MnOaM-I-30" style="edgeStyle=orthogonalEdgeStyle;rounded=0;orthogonalLoop=1;jettySize=auto;html=1;exitX=0;exitY=0.5;exitDx=0;exitDy=0;entryX=1;entryY=0.5;entryDx=0;entryDy=0;fontSize=13;" edge="1" parent="1" source="S8IxdaovWTGk8MnOaM-I-9" target="S8IxdaovWTGk8MnOaM-I-10">
          <mxGeometry relative="1" as="geometry" />
        </mxCell>
        <mxCell id="S8IxdaovWTGk8MnOaM-I-9" value="Вывести форму заявки в поддержку" style="rounded=1;whiteSpace=wrap;html=1;fillColor=#fff2cc;strokeColor=#d6b656;fontSize=13;" vertex="1" parent="1">
          <mxGeometry x="379.5" y="465" width="120" height="60" as="geometry" />
        </mxCell>
        <mxCell id="S8IxdaovWTGk8MnOaM-I-29" style="edgeStyle=orthogonalEdgeStyle;rounded=0;orthogonalLoop=1;jettySize=auto;html=1;exitX=0.5;exitY=1;exitDx=0;exitDy=0;entryX=0;entryY=0.5;entryDx=0;entryDy=0;fontSize=13;" edge="1" parent="1" source="S8IxdaovWTGk8MnOaM-I-10" target="S8IxdaovWTGk8MnOaM-I-11">
          <mxGeometry relative="1" as="geometry" />
        </mxCell>
        <mxCell id="S8IxdaovWTGk8MnOaM-I-10" value="Заполнить форму заявки в поддержку" style="rounded=1;whiteSpace=wrap;html=1;fillColor=#fff2cc;strokeColor=#d6b656;fontSize=13;" vertex="1" parent="1">
          <mxGeometry x="160" y="465" width="120" height="60" as="geometry" />
        </mxCell>
        <mxCell id="S8IxdaovWTGk8MnOaM-I-35" style="edgeStyle=orthogonalEdgeStyle;rounded=0;orthogonalLoop=1;jettySize=auto;html=1;exitX=0.5;exitY=1;exitDx=0;exitDy=0;entryX=0.5;entryY=0;entryDx=0;entryDy=0;fontSize=13;" edge="1" parent="1" source="S8IxdaovWTGk8MnOaM-I-11" target="S8IxdaovWTGk8MnOaM-I-21">
          <mxGeometry relative="1" as="geometry" />
        </mxCell>
        <mxCell id="S8IxdaovWTGk8MnOaM-I-11" value="Отправить заявку" style="rounded=1;whiteSpace=wrap;html=1;fillColor=#fff2cc;strokeColor=#d6b656;fontSize=13;" vertex="1" parent="1">
          <mxGeometry x="505.01" y="570" width="120" height="60" as="geometry" />
        </mxCell>
        <mxCell id="S8IxdaovWTGk8MnOaM-I-27" style="edgeStyle=orthogonalEdgeStyle;rounded=0;orthogonalLoop=1;jettySize=auto;html=1;exitX=0;exitY=0.5;exitDx=0;exitDy=0;entryX=1;entryY=0.5;entryDx=0;entryDy=0;fontSize=13;" edge="1" parent="1" source="S8IxdaovWTGk8MnOaM-I-12" target="S8IxdaovWTGk8MnOaM-I-13">
          <mxGeometry relative="1" as="geometry" />
        </mxCell>
        <mxCell id="S8IxdaovWTGk8MnOaM-I-12" value="Вывести информацию об успешном входе" style="rounded=1;whiteSpace=wrap;html=1;fillColor=#d5e8d4;strokeColor=#82b366;fontSize=13;" vertex="1" parent="1">
          <mxGeometry x="360" y="350" width="190" height="60" as="geometry" />
        </mxCell>
        <mxCell id="S8IxdaovWTGk8MnOaM-I-28" style="edgeStyle=orthogonalEdgeStyle;rounded=0;orthogonalLoop=1;jettySize=auto;html=1;exitX=0;exitY=0.5;exitDx=0;exitDy=0;entryX=0;entryY=0.5;entryDx=0;entryDy=0;fontSize=13;" edge="1" parent="1" source="S8IxdaovWTGk8MnOaM-I-13" target="S8IxdaovWTGk8MnOaM-I-21">
          <mxGeometry relative="1" as="geometry" />
        </mxCell>
        <mxCell id="S8IxdaovWTGk8MnOaM-I-13" value="Начать работу в ЛК" style="rounded=1;whiteSpace=wrap;html=1;fillColor=#fff2cc;strokeColor=#d6b656;fontSize=13;" vertex="1" parent="1">
          <mxGeometry x="125" y="350" width="190" height="60" as="geometry" />
        </mxCell>
        <mxCell id="S8IxdaovWTGk8MnOaM-I-14" value="Система управления ЛК пользрвателей" style="text;html=1;strokeColor=none;fillColor=none;align=center;verticalAlign=middle;whiteSpace=wrap;rounded=0;fontSize=15;fontStyle=1" vertex="1" parent="1">
          <mxGeometry x="470" y="20" width="265" height="30" as="geometry" />
        </mxCell>
        <mxCell id="S8IxdaovWTGk8MnOaM-I-15" value="Пользователь" style="text;html=1;strokeColor=none;fillColor=none;align=center;verticalAlign=middle;whiteSpace=wrap;rounded=0;fontSize=15;fontStyle=1" vertex="1" parent="1">
          <mxGeometry x="200" y="20" width="60" height="30" as="geometry" />
        </mxCell>
        <mxCell id="S8IxdaovWTGk8MnOaM-I-16" value="Вывод формы" style="text;html=1;strokeColor=none;fillColor=none;align=center;verticalAlign=middle;whiteSpace=wrap;rounded=0;fontSize=13;" vertex="1" parent="1">
          <mxGeometry x="535" y="440" width="60" height="30" as="geometry" />
        </mxCell>
        <mxCell id="S8IxdaovWTGk8MnOaM-I-17" value="Возврат к вводу данных" style="text;html=1;strokeColor=none;fillColor=none;align=center;verticalAlign=middle;whiteSpace=wrap;rounded=0;fontSize=13;" vertex="1" parent="1">
          <mxGeometry x="720" y="440" width="100" height="30" as="geometry" />
        </mxCell>
        <mxCell id="S8IxdaovWTGk8MnOaM-I-23" style="edgeStyle=orthogonalEdgeStyle;rounded=0;orthogonalLoop=1;jettySize=auto;html=1;exitX=0.5;exitY=1;exitDx=0;exitDy=0;fontSize=13;" edge="1" parent="1" source="S8IxdaovWTGk8MnOaM-I-20" target="S8IxdaovWTGk8MnOaM-I-2">
          <mxGeometry relative="1" as="geometry" />
        </mxCell>
        <mxCell id="S8IxdaovWTGk8MnOaM-I-20" value="" style="ellipse;whiteSpace=wrap;html=1;aspect=fixed;fillColor=#000000;fontSize=13;" vertex="1" parent="1">
          <mxGeometry x="550" y="80" width="30" height="30" as="geometry" />
        </mxCell>
        <mxCell id="S8IxdaovWTGk8MnOaM-I-21" value="" style="ellipse;whiteSpace=wrap;html=1;aspect=fixed;fillColor=#000000;fontSize=13;" vertex="1" parent="1">
          <mxGeometry x="550.01" y="650" width="30" height="30" as="geometry" />
        </mxCell>
        <mxCell id="S8IxdaovWTGk8MnOaM-I-40" value="" style="endArrow=none;html=1;rounded=0;exitX=0.333;exitY=1.008;exitDx=0;exitDy=0;exitPerimeter=0;entryX=0.333;entryY=0.001;entryDx=0;entryDy=0;entryPerimeter=0;" edge="1" parent="1">
          <mxGeometry width="50" height="50" relative="1" as="geometry">
            <mxPoint x="340.0000000000002" y="735.1100000000001" as="sourcePoint" />
            <mxPoint x="340.0000000000002" y="1.8207657603852567e-14" as="targetPoint" />
          </mxGeometry>
        </mxCell>
        <mxCell id="S8IxdaovWTGk8MnOaM-I-41" value="" style="endArrow=none;html=1;rounded=0;exitX=0.01;exitY=0.092;exitDx=0;exitDy=0;exitPerimeter=0;" edge="1" parent="1" source="S8IxdaovWTGk8MnOaM-I-36">
          <mxGeometry width="50" height="50" relative="1" as="geometry">
            <mxPoint x="530" y="440" as="sourcePoint" />
            <mxPoint x="870" y="67" as="targetPoint" />
          </mxGeometry>
        </mxCell>
      </root>
    </mxGraphModel>
  </diagram>
</mxfile>
